<?xml version="1.0" encoding="UTF-8"?>
<!-- Generator: visioncortex VTracer 0.6.4 -->
<svg version="1.1" xmlns="http://www.w3.org/2000/svg" width="512" height="512">
<path d="M0 0 C0.76 -0 1.53 -0.01 2.31 -0.01 C4.87 -0.02 7.44 -0.02 10 -0.02 C11.84 -0.03 13.67 -0.03 15.5 -0.04 C20.49 -0.05 25.48 -0.06 30.47 -0.06 C33.59 -0.06 36.71 -0.07 39.82 -0.07 C49.57 -0.08 59.31 -0.09 69.06 -0.1 C80.31 -0.1 91.57 -0.12 102.83 -0.15 C111.52 -0.17 120.22 -0.18 128.92 -0.18 C134.11 -0.18 139.31 -0.19 144.51 -0.21 C149.39 -0.22 154.28 -0.23 159.17 -0.22 C160.96 -0.22 162.75 -0.22 164.55 -0.23 C167 -0.24 169.44 -0.24 171.89 -0.23 C172.6 -0.24 173.32 -0.24 174.05 -0.25 C178.4 -0.21 181.09 0.52 184.57 3.14 C186.06 4.88 186.06 4.88 187.34 6.9 C188.09 8.1 188.09 8.1 188.87 9.33 C192 14.5 195.11 19.68 198.17 24.89 C200.27 28.45 202.37 32.01 204.48 35.56 C205.12 36.64 205.12 36.64 205.77 37.74 C210.29 45.36 214.89 52.93 219.5 60.49 C223.21 66.55 226.88 72.63 230.45 78.77 C231.06 79.81 231.66 80.84 232.28 81.91 C233.41 83.85 234.53 85.79 235.64 87.74 C236.38 89.02 236.38 89.02 237.13 90.31 C237.56 91.06 237.98 91.8 238.42 92.57 C238.8 93.09 239.18 93.6 239.57 94.14 C240.23 94.14 240.89 94.14 241.57 94.14 C243.21 91.81 243.21 91.81 244.89 88.78 C245.22 88.21 245.55 87.65 245.88 87.06 C246.6 85.83 247.31 84.59 248.02 83.35 C249.93 80 251.87 76.67 253.8 73.33 C254.4 72.3 254.4 72.3 255.01 71.25 C258.9 64.55 262.91 57.93 266.95 51.33 C271.6 43.72 276.21 36.1 280.73 28.41 C281.16 27.68 281.59 26.95 282.03 26.19 C284.14 22.61 286.24 19.03 288.33 15.45 C289.1 14.15 289.86 12.85 290.62 11.55 C290.97 10.96 291.31 10.37 291.66 9.76 C294.29 5.3 296.56 1.81 301.57 0.14 C304.06 0.04 306.52 -0 309 0 C310.14 -0 310.14 -0 311.31 -0.01 C313.87 -0.02 316.44 -0.02 319 -0.02 C320.84 -0.03 322.67 -0.03 324.5 -0.04 C329.49 -0.05 334.48 -0.06 339.47 -0.06 C342.59 -0.06 345.71 -0.07 348.82 -0.07 C358.57 -0.08 368.31 -0.09 378.06 -0.1 C389.31 -0.1 400.57 -0.12 411.83 -0.15 C420.52 -0.17 429.22 -0.18 437.92 -0.18 C443.11 -0.18 448.31 -0.19 453.51 -0.21 C458.39 -0.22 463.28 -0.23 468.17 -0.22 C469.96 -0.22 471.75 -0.22 473.55 -0.23 C476 -0.24 478.44 -0.24 480.89 -0.23 C481.6 -0.24 482.32 -0.24 483.05 -0.25 C488.35 -0.2 491.29 1.32 495.35 4.55 C497.48 7.31 497.22 9.88 497.1 13.25 C496.05 19.01 492.74 23.64 489.64 28.52 C488.91 29.7 488.18 30.88 487.45 32.06 C485.94 34.53 484.41 36.99 482.87 39.45 C480.66 42.99 478.48 46.56 476.32 50.14 C475.63 51.3 474.93 52.46 474.23 53.61 C473.89 54.18 473.54 54.75 473.19 55.34 C471.42 58.26 469.65 61.17 467.88 64.07 C463.5 71.26 459.13 78.45 454.76 85.64 C454.4 86.23 454.04 86.82 453.67 87.43 C449.29 94.65 444.91 101.89 440.57 109.14 C435.87 116.99 431.14 124.82 426.39 132.64 C425.85 133.52 425.85 133.52 425.3 134.43 C422.36 139.28 419.41 144.12 416.46 148.97 C413.89 153.2 411.33 157.42 408.76 161.64 C408.4 162.23 408.04 162.82 407.68 163.43 C403.29 170.65 398.92 177.89 394.57 185.14 C389.87 192.99 385.14 200.82 380.39 208.64 C379.85 209.52 379.85 209.52 379.3 210.43 C376.36 215.28 373.41 220.12 370.46 224.97 C367.89 229.2 365.33 233.42 362.76 237.64 C362.4 238.23 362.04 238.82 361.68 239.43 C357.29 246.65 352.92 253.89 348.57 261.14 C343.87 268.99 339.14 276.82 334.39 284.64 C334.03 285.23 333.67 285.82 333.3 286.43 C330.36 291.28 327.41 296.12 324.46 300.97 C321.89 305.2 319.33 309.42 316.76 313.64 C316.4 314.23 316.04 314.82 315.68 315.43 C311.29 322.65 306.92 329.89 302.57 337.14 C297.87 344.99 293.14 352.82 288.39 360.64 C288.03 361.23 287.67 361.82 287.3 362.43 C284.36 367.28 281.41 372.12 278.46 376.97 C276.25 380.6 274.05 384.23 271.84 387.86 C270.77 389.62 269.7 391.39 268.63 393.15 C265.38 398.48 262.16 403.83 258.98 409.2 C258.43 410.13 257.88 411.05 257.32 412.01 C256.32 413.7 255.32 415.4 254.33 417.1 C248.82 426.4 248.82 426.4 244.39 427.86 C243.27 427.97 243.27 427.97 242.14 428.08 C241.39 428.17 240.65 428.26 239.89 428.36 C236.01 428 233.36 426.05 230.84 423.15 C226.46 416.65 222.43 409.98 218.52 403.19 C216.67 399.97 214.79 396.76 212.92 393.54 C212.54 392.9 212.17 392.26 211.79 391.61 C208.59 386.15 205.3 380.75 201.95 375.39 C197.33 368 192.8 360.56 188.32 353.08 C182.98 344.14 177.61 335.23 172.2 326.33 C171.85 325.75 171.49 325.17 171.13 324.57 C168.98 321.03 166.82 317.48 164.67 313.94 C161.36 308.51 158.06 303.07 154.76 297.64 C154.22 296.76 154.22 296.76 153.67 295.85 C148.81 287.84 143.97 279.82 139.16 271.78 C134.93 264.72 130.66 257.68 126.39 250.64 C126.03 250.05 125.67 249.46 125.3 248.86 C122.73 244.62 120.15 240.38 117.57 236.14 C114.64 231.31 111.7 226.47 108.76 221.64 C108.4 221.05 108.04 220.46 107.68 219.85 C102.81 211.84 97.97 203.82 93.16 195.78 C88.93 188.72 84.66 181.68 80.39 174.64 C79.85 173.76 79.85 173.76 79.3 172.86 C76.73 168.62 74.15 164.38 71.57 160.14 C68.64 155.31 65.7 150.47 62.76 145.64 C62.4 145.05 62.04 144.46 61.68 143.85 C56.81 135.84 51.97 127.82 47.16 119.78 C42.93 112.72 38.66 105.68 34.39 98.64 C33.85 97.76 33.85 97.76 33.3 96.86 C30.73 92.62 28.15 88.38 25.57 84.14 C6.11 52.13 6.11 52.13 0.84 43.25 C-1.65 39.06 -4.19 34.92 -6.83 30.82 C-7.39 29.93 -7.95 29.05 -8.52 28.13 C-9.59 26.45 -10.67 24.77 -11.77 23.11 C-15.24 17.57 -16.67 12.69 -15.43 6.14 C-11.02 0.3 -6.88 -0.01 0 0 Z " fill="#131414" transform="translate(15.426361083984375,41.85955810546875)"/>
<path d="M0 0 C9.14 -0.23 18.27 -0.41 27.41 -0.52 C31.65 -0.57 35.89 -0.64 40.14 -0.75 C44.24 -0.86 48.33 -0.92 52.43 -0.95 C53.99 -0.97 55.55 -1 57.11 -1.06 C69.3 -1.46 69.3 -1.46 73.44 2.1 C75.25 4.66 76.66 7.17 78 10 C78.63 10.97 79.27 11.94 79.92 12.94 C80.41 13.74 80.9 14.53 81.4 15.35 C81.97 16.27 82.55 17.19 83.14 18.14 C83.73 19.11 84.32 20.07 84.94 21.06 C90.25 29.62 95.62 38.14 101.06 46.62 C101.73 47.66 102.39 48.7 103.08 49.77 C104.41 51.84 105.73 53.91 107.06 55.97 C114.91 68.23 122.7 80.52 130.47 92.82 C136.03 101.63 141.62 110.42 147.22 119.2 C150.73 124.71 154.24 130.23 157.75 135.74 C160.69 140.36 163.63 144.99 166.57 149.61 C172.55 159 178.52 168.4 184.47 177.82 C188.26 183.83 192.06 189.82 195.88 195.81 C196.45 196.72 197.03 197.62 197.62 198.56 C200.73 203.44 203.84 208.31 206.96 213.18 C207.61 214.19 208.25 215.19 208.92 216.23 C210.16 218.16 211.4 220.1 212.65 222.03 C213.48 223.34 213.48 223.34 214.33 224.67 C214.82 225.43 215.32 226.2 215.82 226.99 C217 229 217 229 218 232 C222.6 234.49 226.74 234.56 231.75 233.31 C234.16 232.22 234.16 232.22 234.78 229.98 C236.55 225.64 239.17 221.95 241.75 218.06 C242.93 216.26 244.12 214.46 245.3 212.65 C246.22 211.25 246.22 211.25 247.15 209.83 C250.12 205.28 253.03 200.71 255.94 196.12 C256.52 195.21 257.1 194.3 257.7 193.36 C258.88 191.5 260.05 189.64 261.23 187.78 C264.15 183.19 267.08 178.59 270 174 C271.17 172.17 272.33 170.33 273.5 168.5 C299.17 128.17 324.83 87.83 350.5 47.5 C351.08 46.59 351.66 45.68 352.25 44.75 C353.41 42.92 354.57 41.1 355.73 39.28 C358.75 34.54 361.77 29.79 364.78 25.04 C365.4 24.06 366.03 23.08 366.67 22.07 C367.85 20.21 369.03 18.35 370.21 16.49 C370.75 15.64 371.29 14.79 371.84 13.92 C372.31 13.18 372.78 12.45 373.26 11.69 C374.12 10.36 374.12 10.36 375 9 C375.32 8.25 375.64 7.5 375.97 6.72 C377.38 3.87 378.57 2.07 381 0 C386.36 -1.28 391.65 -1.05 397.12 -0.88 C398.7 -0.86 400.28 -0.85 401.87 -0.84 C406.02 -0.81 410.17 -0.72 414.32 -0.62 C418.57 -0.53 422.81 -0.48 427.05 -0.44 C435.37 -0.34 443.69 -0.19 452 0 C451.23 1.57 450.45 3.15 449.67 4.72 C449.24 5.59 448.8 6.47 448.36 7.37 C446.24 11.48 443.79 15.35 441.31 19.25 C435.85 27.96 430.52 36.74 425.25 45.56 C419.34 55.44 413.41 65.29 407.44 75.12 C407.09 75.7 406.74 76.27 406.38 76.86 C404.28 80.32 402.17 83.79 400.06 87.25 C396.83 92.56 393.6 97.88 390.38 103.19 C389.84 104.06 389.84 104.06 389.3 104.95 C384.34 113.12 379.41 121.3 374.5 129.5 C369.24 138.29 363.94 147.06 358.62 155.81 C358.27 156.39 357.92 156.97 357.56 157.57 C355.4 161.12 353.25 164.66 351.09 168.2 C347.79 173.63 344.49 179.07 341.19 184.5 C340.83 185.09 340.47 185.68 340.1 186.29 C335.71 193.51 331.34 200.75 327 208 C322.3 215.85 317.56 223.68 312.81 231.5 C312.28 232.38 312.28 232.38 311.73 233.28 C308.78 238.13 305.83 242.98 302.89 247.83 C300.32 252.05 297.75 256.28 295.19 260.5 C294.83 261.09 294.47 261.68 294.1 262.29 C289.71 269.51 285.34 276.75 281 284 C276.3 291.85 271.56 299.68 266.81 307.5 C266.45 308.09 266.1 308.68 265.73 309.28 C262.78 314.13 259.83 318.98 256.89 323.83 C254.32 328.05 251.75 332.28 249.19 336.5 C248.83 337.08 248.48 337.66 248.12 338.26 C242.91 346.84 237.72 355.43 232.58 364.05 C232.13 364.8 231.68 365.55 231.22 366.32 C230.65 367.28 230.65 367.28 230.06 368.27 C229.08 369.87 228.04 371.44 227 373 C226.34 373 225.68 373 225 373 C223.48 370.87 223.48 370.87 221.68 367.86 C221.01 366.74 220.34 365.62 219.64 364.47 C218.91 363.23 218.17 361.99 217.44 360.75 C216.67 359.47 215.91 358.2 215.14 356.92 C213.55 354.27 211.96 351.61 210.37 348.95 C207.12 343.52 203.83 338.12 200.55 332.72 C198.79 329.82 197.03 326.93 195.27 324.03 C192.74 319.87 190.21 315.71 187.68 311.54 C180.62 299.93 173.57 288.3 166.59 276.64 C160.18 265.94 153.68 255.29 147.21 244.63 C143.99 239.33 140.77 234.04 137.56 228.74 C135.79 225.83 134.02 222.91 132.25 220 C131.54 218.83 130.83 217.67 130.12 216.5 C129.77 215.92 129.42 215.35 129.06 214.75 C125.87 209.5 125.87 209.5 124.81 207.75 C124.1 206.58 123.4 205.42 122.69 204.25 C120.92 201.34 119.15 198.43 117.39 195.52 C114.15 190.19 110.92 184.87 107.68 179.54 C100.62 167.93 93.57 156.3 86.59 144.64 C80.18 133.94 73.68 123.29 67.21 112.63 C63.28 106.17 59.36 99.72 55.44 93.26 C54.39 91.52 53.33 89.77 52.27 88.03 C51.92 87.46 51.57 86.88 51.21 86.29 C49.04 82.71 46.86 79.12 44.68 75.54 C37.63 63.94 30.58 52.34 23.62 40.69 C20.62 35.68 17.6 30.7 14.55 25.72 C13.77 24.44 12.99 23.16 12.21 21.88 C11.05 19.99 9.89 18.09 8.73 16.2 C7.65 14.44 6.57 12.67 5.49 10.91 C4.55 9.38 4.55 9.38 3.6 7.82 C2.14 5.25 1.06 2.74 0 0 Z " fill="#119083" transform="translate(30,64)"/>
<path d="M0 0 C7.72 -0.21 15.44 -0.37 23.16 -0.47 C26.74 -0.51 30.33 -0.58 33.91 -0.68 C37.38 -0.78 40.84 -0.83 44.3 -0.85 C46.26 -0.88 48.22 -0.95 50.17 -1.02 C58.85 -1.02 58.85 -1.02 62.04 1.82 C63.61 4.14 64.82 6.45 66 9 C66.7 10.18 67.42 11.35 68.16 12.51 C68.81 13.63 69.47 14.75 70.14 15.89 C70.51 16.52 70.88 17.14 71.26 17.78 C72.04 19.1 72.82 20.43 73.6 21.76 C75.69 25.31 77.79 28.85 79.89 32.4 C80.53 33.48 80.53 33.48 81.18 34.58 C85.42 41.73 89.73 48.84 94.06 55.94 C98.58 63.34 103.07 70.76 107.44 78.25 C110.7 83.82 114 89.37 117.38 94.88 C117.78 95.55 118.19 96.22 118.6 96.92 C120.69 100.28 122.49 103.06 126 105 C131.55 105.72 131.55 105.72 136.38 103.37 C139.36 100.68 141.03 98.07 143.05 94.59 C143.42 93.97 143.78 93.34 144.16 92.69 C144.95 91.34 145.74 89.98 146.52 88.63 C148.2 85.72 149.89 82.83 151.59 79.94 C152.46 78.45 153.33 76.97 154.2 75.48 C158.22 68.6 162.35 61.8 166.5 55 C171.07 47.51 175.6 40.01 180.07 32.46 C180.71 31.38 180.71 31.38 181.37 30.27 C183.44 26.76 185.52 23.26 187.58 19.74 C188.34 18.46 189.1 17.18 189.86 15.89 C190.84 14.22 190.84 14.22 191.84 12.51 C192.19 11.97 192.54 11.42 192.9 10.85 C194.07 8.95 194.07 8.95 195.11 6.6 C196.52 3.9 197.73 2.03 200 0 C204.58 -1.25 209 -1.05 213.71 -0.88 C215.05 -0.86 216.38 -0.85 217.72 -0.84 C221.22 -0.81 224.72 -0.72 228.23 -0.62 C231.8 -0.53 235.38 -0.48 238.96 -0.44 C245.98 -0.34 252.99 -0.19 260 0 C258.9 1.9 257.79 3.8 256.69 5.7 C255.77 7.29 255.77 7.29 254.83 8.91 C252.32 13.15 249.65 17.27 246.94 21.38 C245.8 23.11 244.66 24.85 243.52 26.59 C242.94 27.48 242.36 28.37 241.76 29.29 C238.83 33.8 235.95 38.33 233.06 42.88 C232.48 43.79 231.9 44.7 231.3 45.65 C230.12 47.5 228.94 49.36 227.77 51.22 C224.85 55.81 221.92 60.41 219 65 C217.83 66.83 216.67 68.67 215.5 70.5 C191 109 191 109 166.5 147.5 C165.92 148.41 165.34 149.32 164.75 150.25 C163.59 152.08 162.42 153.91 161.26 155.74 C158.3 160.38 155.35 165.03 152.39 169.68 C145.32 180.82 138.19 191.93 131 203 C127.32 201.77 126.96 200.78 124.99 197.53 C124.11 196.11 124.11 196.11 123.22 194.65 C122.59 193.61 121.96 192.57 121.31 191.5 C119.95 189.29 118.59 187.08 117.23 184.87 C116.71 184.02 116.71 184.02 116.18 183.15 C112.55 177.24 108.81 171.4 105.06 165.56 C104.4 164.53 103.74 163.5 103.06 162.44 C101.71 160.34 100.37 158.25 99.02 156.15 C95.64 150.88 92.26 145.59 88.88 140.31 C88.21 139.28 87.55 138.24 86.86 137.17 C80.8 127.69 74.76 118.2 68.72 108.7 C65.81 104.13 62.91 99.57 60 95 C58.83 93.17 57.67 91.33 56.5 89.5 C55.92 88.59 55.34 87.69 54.75 86.75 C35.5 56.5 35.5 56.5 33.75 53.75 C32.59 51.92 31.42 50.09 30.26 48.26 C27.3 43.62 24.35 38.97 21.39 34.32 C20.2 32.45 19.01 30.57 17.81 28.69 C17.24 27.78 16.66 26.88 16.07 25.94 C11.82 19.27 7.54 12.63 3.2 6.01 C0 1.11 0 1.11 0 0 Z " fill="#1791D3" transform="translate(126,64)"/>
</svg>
